<?xml version="1.0" encoding="utf-8"?>
<!-- Generator: Adobe Illustrator 25.4.1, SVG Export Plug-In . SVG Version: 6.00 Build 0)  -->
<!DOCTYPE svg PUBLIC "-//W3C//DTD SVG 1.1//EN" "http://www.w3.org/Graphics/SVG/1.1/DTD/svg11.dtd" [
	<!ENTITY ns_extend "http://ns.adobe.com/Extensibility/1.0/">
	<!ENTITY ns_ai "http://ns.adobe.com/AdobeIllustrator/10.0/">
	<!ENTITY ns_graphs "http://ns.adobe.com/Graphs/1.0/">
	<!ENTITY ns_vars "http://ns.adobe.com/Variables/1.0/">
	<!ENTITY ns_imrep "http://ns.adobe.com/ImageReplacement/1.0/">
	<!ENTITY ns_sfw "http://ns.adobe.com/SaveForWeb/1.0/">
	<!ENTITY ns_custom "http://ns.adobe.com/GenericCustomNamespace/1.0/">
	<!ENTITY ns_adobe_xpath "http://ns.adobe.com/XPath/1.0/">
]>
<svg version="1.1" id="Layer_1" xmlns:x="&ns_extend;" xmlns:i="&ns_ai;" xmlns:graph="&ns_graphs;"
	 xmlns="http://www.w3.org/2000/svg" xmlns:xlink="http://www.w3.org/1999/xlink" x="0px" y="0px" viewBox="0 0 139.4 139.4"
	 style="enable-background:new 0 0 139.4 139.4;" xml:space="preserve">
<style type="text/css">
	.st0{fill:#1E2F55;}
	.st1{fill:#FFFFFF;}
	.st2{fill:#FDFFFF;}
</style>
<metadata>
	<sfw  xmlns="&ns_sfw;">
		<slices></slices>
		<sliceSourceBounds  bottomLeftOrigin="true" height="129.3" width="134.8" x="136.8" y="-149.7"></sliceSourceBounds>
	</sfw>
</metadata>
<g>
	<g>
		<circle class="st0" cx="66.4" cy="67.7" r="59.3"/>
		<path class="st1" d="M135.8,55.4c1.4,9.1,0.9,18.5-1.3,27.4c-2.2,8.9-6.2,17.3-11.5,24.5c-5.4,7.3-12.2,13.4-19.9,18.1
			c-7.7,4.6-16.3,7.7-25,9c-8.8,1.3-17.7,0.9-26.3-1.3c-8.5-2.1-16.6-5.9-23.5-11.1c-7-5.2-12.9-11.7-17.3-19.1
			c-4.4-7.4-7.3-15.6-8.6-24c-1.2-8.4-0.8-17,1.2-25.2c2-8.2,5.7-15.9,10.7-22.5c5-6.7,11.2-12.3,18.3-16.5c7.1-4.2,14.9-7,23-8.2
			c8-1.2,16.3-0.8,24.1,1.2c7.8,2,15.2,5.5,21.5,10.2c6.4,4.8,11.8,10.7,15.8,17.5c4,6.8,6.7,14.3,7.8,22L135.8,55.4z M124.8,57.4
			c-1.6-7.6-4.7-14.9-9-21.2c-4.3-6.4-9.9-11.8-16.2-16c-6.4-4.2-13.5-7-20.8-8.4c-7.4-1.4-15-1.3-22.2,0.2
			c-7.3,1.5-14.2,4.5-20.2,8.6c-6,4.1-11.2,9.4-15.2,15.5c-4,6.1-6.7,12.8-8,19.9c-1.3,7-1.2,14.2,0.2,21.1
			c1.5,6.9,4.3,13.4,8.2,19.2c3.9,5.7,9,10.6,14.7,14.4c5.8,3.7,12.2,6.3,18.9,7.5c6.6,1.2,13.5,1.1,20-0.2
			c6.6-1.4,12.7-4.1,18.2-7.8c5.4-3.7,10.1-8.5,13.6-14c3.5-5.5,6-11.6,7.1-17.9c1.2-6.3,1-12.7-0.3-18.9L124.8,57.4z"/>
	</g>
	<g>
		<path class="st2" d="M36.1,52.3c0.8-0.1,1.5-0.2,2.2-0.5c0.7-0.3,1.3-0.7,1.7-1.3c0.4-0.6,0.7-1.3,0.7-2.2c0-1.4-0.5-2.5-1.4-3.2
			c-0.9-0.7-2-1.1-3.2-1.1c-1.7,0-2.9,0.5-3.8,1.6c-0.8,1.1-1.3,2.5-1.2,4.1h-6.2c0.1-1.7,0.4-3.2,0.9-4.6c0.5-1.4,1.3-2.6,2.3-3.5
			c1-1,2.1-1.7,3.5-2.3c1.4-0.5,2.9-0.8,4.5-0.8c1.3,0,2.6,0.2,3.9,0.6c1.3,0.4,2.5,1,3.5,1.7c1,0.8,1.9,1.7,2.5,2.8
			c0.6,1.1,1,2.4,1,3.8c0,1.6-0.4,3-1.1,4.2c-0.8,1.2-1.9,2-3.4,2.5v0.1c1.8,0.4,3.2,1.3,4.2,2.6c1,1.3,1.5,2.9,1.5,4.8
			c0,1.7-0.3,3.2-1,4.5c-0.7,1.3-1.5,2.4-2.7,3.3c-1.1,0.9-2.4,1.6-3.8,2c-1.4,0.5-3,0.7-4.5,0.7c-1.8,0-3.5-0.3-5-0.8
			c-1.5-0.5-2.8-1.3-3.8-2.3c-1-1-1.9-2.2-2.4-3.7c-0.6-1.4-0.8-3.1-0.8-5h6.2c0,0.9,0.2,1.7,0.4,2.5c0.2,0.8,0.6,1.5,1.1,2
			c0.5,0.6,1,1,1.7,1.4c0.7,0.3,1.5,0.5,2.5,0.5c1.5,0,2.7-0.5,3.7-1.4c1-0.9,1.5-2.1,1.5-3.7c0-1.2-0.2-2.2-0.7-2.8
			c-0.5-0.6-1.1-1.1-1.8-1.4C38,57.2,37.2,57,36.3,57s-1.7-0.1-2.5-0.1v-4.6C34.5,52.4,35.3,52.4,36.1,52.3z"/>
		<path class="st2" d="M65.4,44.7c-0.8-0.8-1.7-1.2-2.9-1.2c-1.2,0-2.1,0.3-2.9,1c-0.8,0.7-1.4,1.5-1.9,2.5c-0.5,1-0.8,2.1-1,3.2
			c-0.2,1.1-0.3,2.2-0.4,3.1l0.1,0.1c0.9-1.3,1.9-2.2,3.1-2.8c1.2-0.6,2.6-0.8,4.2-0.8c1.4,0,2.7,0.3,4.1,0.9
			c1.3,0.6,2.5,1.4,3.4,2.4c0.9,1,1.5,2.1,1.9,3.4c0.4,1.3,0.6,2.5,0.6,3.8c0,1.7-0.3,3.2-0.8,4.6c-0.5,1.4-1.3,2.7-2.3,3.7
			c-1,1.1-2.2,1.9-3.6,2.5c-1.4,0.6-2.9,0.9-4.6,0.9c-2.4,0-4.5-0.5-6.1-1.5c-1.6-1-2.9-2.2-3.8-3.8c-1-1.6-1.6-3.4-2-5.3
			c-0.4-2-0.6-4-0.6-6.1c0-2,0.2-4,0.7-6c0.5-2,1.2-3.8,2.2-5.4c1-1.6,2.3-2.9,3.9-4c1.6-1,3.6-1.5,5.9-1.5c1.4,0,2.7,0.2,3.9,0.6
			c1.2,0.4,2.3,1,3.2,1.7c0.9,0.8,1.7,1.7,2.3,2.8c0.6,1.1,1,2.4,1.2,3.8h-6.2C66.7,46.5,66.2,45.5,65.4,44.7z M59.9,55.3
			c-0.7,0.3-1.2,0.8-1.6,1.3c-0.4,0.6-0.8,1.2-1,1.9C57.1,59.3,57,60,57,60.8c0,0.7,0.1,1.5,0.3,2.2c0.2,0.7,0.6,1.4,1,1.9
			c0.4,0.6,1,1,1.6,1.4c0.6,0.3,1.4,0.5,2.2,0.5c0.8,0,1.5-0.2,2.1-0.5c0.6-0.3,1.1-0.8,1.5-1.3c0.4-0.6,0.8-1.2,1-1.9
			c0.2-0.7,0.3-1.4,0.3-2.2c0-0.8-0.1-1.5-0.3-2.2c-0.2-0.7-0.5-1.4-0.9-1.9c-0.4-0.6-0.9-1-1.5-1.4c-0.6-0.4-1.4-0.5-2.2-0.5
			C61.3,54.8,60.6,55,59.9,55.3z"/>
		<path class="st2" d="M76.6,47.3c0.6-2.1,1.5-3.9,2.6-5.2c1.1-1.3,2.3-2.2,3.8-2.8c1.4-0.6,3-0.8,4.6-0.8c1.6,0,3.2,0.3,4.6,0.8
			c1.4,0.6,2.7,1.5,3.8,2.8c1.1,1.3,2,3,2.6,5.2c0.6,2.1,0.9,4.8,0.9,7.9c0,3.2-0.3,5.9-0.9,8.1c-0.6,2.2-1.5,3.9-2.6,5.2
			c-1.1,1.3-2.4,2.2-3.8,2.8c-1.4,0.6-3,0.8-4.6,0.8c-1.6,0-3.1-0.3-4.6-0.8c-1.4-0.6-2.7-1.5-3.8-2.8c-1.1-1.3-1.9-3-2.6-5.2
			c-0.6-2.2-0.9-4.9-0.9-8.1C75.6,52.1,76,49.5,76.6,47.3z M82.3,58.6c0.1,1.3,0.3,2.6,0.6,3.8c0.3,1.2,0.8,2.3,1.5,3.1
			c0.7,0.9,1.7,1.3,3.1,1.3c1.4,0,2.4-0.4,3.1-1.3c0.7-0.9,1.2-1.9,1.6-3.1c0.3-1.2,0.5-2.5,0.6-3.8c0.1-1.3,0.1-2.4,0.1-3.4
			c0-0.6,0-1.2,0-2s-0.1-1.6-0.2-2.4c-0.1-0.8-0.3-1.7-0.5-2.5c-0.2-0.8-0.5-1.5-0.9-2.2c-0.4-0.6-0.9-1.2-1.5-1.6
			c-0.6-0.4-1.4-0.6-2.3-0.6c-0.9,0-1.6,0.2-2.2,0.6c-0.6,0.4-1.1,0.9-1.5,1.6c-0.4,0.6-0.7,1.4-0.9,2.2c-0.2,0.8-0.4,1.6-0.5,2.5
			c-0.1,0.8-0.1,1.6-0.2,2.4s0,1.5,0,2C82.2,56.2,82.2,57.3,82.3,58.6z"/>
		<path class="st2" d="M103.3,42.7c0.4-0.8,0.8-1.6,1.5-2.2c0.6-0.6,1.3-1.1,2.2-1.5c0.8-0.4,1.7-0.5,2.7-0.5s1.8,0.2,2.7,0.5
			c0.8,0.4,1.6,0.8,2.2,1.5c0.6,0.6,1.1,1.3,1.5,2.2c0.4,0.8,0.5,1.7,0.5,2.7c0,1-0.2,1.8-0.5,2.7c-0.4,0.8-0.8,1.6-1.5,2.2
			c-0.6,0.6-1.3,1.1-2.2,1.5c-0.8,0.4-1.7,0.5-2.7,0.5s-1.8-0.2-2.7-0.5c-0.8-0.4-1.6-0.8-2.2-1.5c-0.6-0.6-1.1-1.3-1.5-2.2
			c-0.4-0.8-0.5-1.7-0.5-2.7C102.8,44.5,103,43.6,103.3,42.7z M106.1,47c0.2,0.5,0.5,0.9,0.9,1.3c0.4,0.4,0.8,0.7,1.2,0.9
			c0.5,0.2,0.9,0.3,1.4,0.3s1-0.1,1.4-0.3c0.5-0.2,0.9-0.5,1.2-0.9c0.4-0.4,0.6-0.8,0.9-1.3c0.2-0.5,0.3-1,0.3-1.6
			c0-0.6-0.1-1.1-0.3-1.6c-0.2-0.5-0.5-0.9-0.9-1.3c-0.4-0.4-0.8-0.7-1.2-0.9c-0.5-0.2-0.9-0.3-1.4-0.3s-1,0.1-1.4,0.3
			c-0.5,0.2-0.9,0.5-1.2,0.9c-0.4,0.4-0.6,0.8-0.9,1.3c-0.2,0.5-0.3,1-0.3,1.6C105.8,46,105.9,46.5,106.1,47z"/>
	</g>
	<g>
		<path class="st2" d="M28.1,90.9l-3.6-10.4H26l3,9h0l3-9h1.4l-3.7,10.4H28.1z"/>
		<path class="st2" d="M34.1,82.1v-1.5h1.2v1.5H34.1z M35.3,83.4v7.5h-1.2v-7.5H35.3z"/>
		<path class="st2" d="M38.3,83.4V85h0c0.3-0.6,0.7-1.1,1.1-1.3c0.4-0.3,1-0.4,1.7-0.4v1.3c-0.5,0-0.9,0.1-1.3,0.2
			c-0.3,0.1-0.6,0.3-0.8,0.6c-0.2,0.3-0.4,0.6-0.5,0.9s-0.1,0.8-0.1,1.3v3.3h-1.2v-7.5H38.3z"/>
		<path class="st2" d="M45.2,83.4v1.1h-1.5v4.7c0,0.1,0,0.3,0,0.3c0,0.1,0.1,0.2,0.1,0.2c0.1,0,0.2,0.1,0.3,0.1c0.1,0,0.3,0,0.5,0
			h0.6v1.1h-0.9c-0.3,0-0.6,0-0.8-0.1c-0.2,0-0.4-0.1-0.6-0.2c-0.1-0.1-0.2-0.3-0.3-0.5c-0.1-0.2-0.1-0.5-0.1-0.8v-4.8h-1.3v-1.1
			h1.3v-2.2h1.2v2.2H45.2z"/>
		<path class="st2" d="M51.7,90.9v-1.2h0c-0.3,0.5-0.6,0.8-1,1c-0.4,0.2-0.9,0.3-1.4,0.3c-0.5,0-0.9-0.1-1.2-0.2
			c-0.3-0.1-0.6-0.3-0.8-0.6c-0.2-0.2-0.3-0.5-0.4-0.9c-0.1-0.3-0.1-0.7-0.1-1.1v-4.9h1.2v5.1c0,0.5,0.1,0.8,0.4,1.1
			s0.6,0.4,1.1,0.4c0.4,0,0.7-0.1,1-0.2c0.3-0.1,0.5-0.3,0.7-0.5c0.2-0.2,0.3-0.5,0.4-0.7s0.1-0.6,0.1-0.9v-4.2h1.2v7.5H51.7z"/>
		<path class="st2" d="M61.3,90.9c-0.2,0.1-0.5,0.2-0.9,0.2c-0.3,0-0.6-0.1-0.8-0.3s-0.3-0.5-0.3-0.9c-0.3,0.4-0.7,0.7-1.2,0.9
			c-0.4,0.2-0.9,0.3-1.5,0.3c-0.3,0-0.7,0-1-0.1c-0.3-0.1-0.6-0.2-0.8-0.4c-0.2-0.2-0.4-0.4-0.5-0.6c-0.1-0.3-0.2-0.6-0.2-1
			c0-0.4,0.1-0.8,0.2-1c0.1-0.3,0.3-0.5,0.6-0.7c0.2-0.2,0.5-0.3,0.8-0.4c0.3-0.1,0.6-0.2,0.9-0.2c0.3-0.1,0.7-0.1,1-0.2
			c0.3,0,0.6-0.1,0.8-0.1c0.2-0.1,0.4-0.2,0.6-0.3c0.1-0.1,0.2-0.3,0.2-0.5c0-0.3-0.1-0.5-0.2-0.7c-0.1-0.2-0.2-0.3-0.4-0.4
			c-0.2-0.1-0.3-0.1-0.5-0.2s-0.4,0-0.6,0c-0.5,0-1,0.1-1.3,0.3c-0.3,0.2-0.5,0.6-0.6,1.1h-1.2c0-0.5,0.1-0.9,0.3-1.2
			c0.2-0.3,0.4-0.6,0.7-0.8c0.3-0.2,0.6-0.3,1-0.4c0.4-0.1,0.8-0.1,1.2-0.1c0.3,0,0.7,0,1,0.1c0.3,0,0.6,0.1,0.9,0.3
			s0.5,0.4,0.7,0.6c0.2,0.3,0.2,0.6,0.2,1.1v3.8c0,0.3,0,0.5,0.1,0.6c0,0.1,0.1,0.2,0.3,0.2c0.1,0,0.2,0,0.4-0.1V90.9z M59.3,87
			c-0.2,0.1-0.4,0.2-0.6,0.3c-0.3,0.1-0.5,0.1-0.8,0.1c-0.3,0-0.6,0.1-0.8,0.1s-0.5,0.1-0.8,0.2c-0.2,0.1-0.4,0.2-0.5,0.4
			c-0.1,0.2-0.2,0.4-0.2,0.7c0,0.2,0,0.4,0.1,0.5c0.1,0.1,0.2,0.3,0.3,0.3s0.3,0.1,0.5,0.2S56.8,90,57,90c0.4,0,0.8-0.1,1-0.2
			c0.3-0.1,0.5-0.2,0.7-0.4c0.2-0.2,0.3-0.4,0.4-0.5c0.1-0.2,0.1-0.4,0.1-0.6V87z"/>
		<path class="st2" d="M63.8,80.6v10.4h-1.2V80.6H63.8z"/>
		<path class="st2" d="M68.8,81.7v-1.2h8.3v1.2h-3.5v9.2h-1.4v-9.2H68.8z"/>
		<path class="st2" d="M76.2,85.6c0.2-0.5,0.4-0.9,0.7-1.2c0.3-0.4,0.7-0.6,1.1-0.8c0.5-0.2,1-0.3,1.6-0.3c0.6,0,1.1,0.1,1.6,0.3
			c0.4,0.2,0.8,0.5,1.1,0.8c0.3,0.4,0.5,0.8,0.7,1.2c0.2,0.5,0.2,1,0.2,1.5c0,0.6-0.1,1.1-0.2,1.5s-0.4,0.9-0.7,1.2
			c-0.3,0.4-0.7,0.6-1.1,0.8c-0.4,0.2-1,0.3-1.6,0.3c-0.6,0-1.1-0.1-1.6-0.3c-0.5-0.2-0.8-0.5-1.1-0.8c-0.3-0.4-0.5-0.8-0.7-1.2
			s-0.2-1-0.2-1.5C76,86.6,76.1,86.1,76.2,85.6z M77.5,88.4c0.1,0.4,0.3,0.6,0.5,0.9c0.2,0.2,0.5,0.4,0.7,0.5
			c0.3,0.1,0.6,0.2,0.9,0.2c0.3,0,0.6-0.1,0.9-0.2c0.3-0.1,0.5-0.3,0.7-0.5s0.4-0.5,0.5-0.9s0.2-0.8,0.2-1.2c0-0.5-0.1-0.9-0.2-1.2
			c-0.1-0.4-0.3-0.6-0.5-0.9c-0.2-0.2-0.5-0.4-0.7-0.6c-0.3-0.1-0.6-0.2-0.9-0.2c-0.3,0-0.6,0.1-0.9,0.2s-0.5,0.3-0.7,0.6
			c-0.2,0.2-0.4,0.5-0.5,0.9c-0.1,0.4-0.2,0.8-0.2,1.2C77.3,87.6,77.4,88,77.5,88.4z"/>
		<path class="st2" d="M89.8,90.9v-1.2h0c-0.3,0.5-0.6,0.8-1,1c-0.4,0.2-0.9,0.3-1.4,0.3c-0.5,0-0.9-0.1-1.2-0.2
			c-0.3-0.1-0.6-0.3-0.8-0.6s-0.3-0.5-0.4-0.9s-0.1-0.7-0.1-1.1v-4.9H86v5.1c0,0.5,0.1,0.8,0.4,1.1S87,90,87.5,90
			c0.4,0,0.7-0.1,1-0.2c0.3-0.1,0.5-0.3,0.7-0.5c0.2-0.2,0.3-0.5,0.4-0.7s0.1-0.6,0.1-0.9v-4.2h1.2v7.5H89.8z"/>
		<path class="st2" d="M93.9,83.4V85h0c0.3-0.6,0.7-1.1,1.1-1.3c0.4-0.3,1-0.4,1.7-0.4v1.3c-0.5,0-0.9,0.1-1.3,0.2
			c-0.3,0.1-0.6,0.3-0.8,0.6c-0.2,0.3-0.4,0.6-0.5,0.9S94,87.1,94,87.6v3.3h-1.2v-7.5H93.9z"/>
		<path class="st2" d="M98.6,89.2c0.1,0.2,0.3,0.3,0.5,0.4c0.2,0.1,0.4,0.2,0.6,0.2c0.2,0,0.5,0.1,0.7,0.1c0.2,0,0.4,0,0.6,0
			c0.2,0,0.4-0.1,0.6-0.2s0.3-0.2,0.4-0.3s0.2-0.3,0.2-0.6c0-0.3-0.1-0.6-0.4-0.7c-0.2-0.2-0.5-0.3-0.9-0.4
			c-0.4-0.1-0.8-0.2-1.2-0.3c-0.4-0.1-0.8-0.2-1.2-0.3c-0.4-0.1-0.7-0.4-0.9-0.6c-0.2-0.3-0.4-0.6-0.4-1.1c0-0.4,0.1-0.7,0.3-1
			c0.2-0.3,0.4-0.5,0.7-0.7c0.3-0.2,0.6-0.3,0.9-0.4c0.3-0.1,0.7-0.1,1-0.1c0.4,0,0.8,0,1.2,0.1c0.4,0.1,0.7,0.2,1,0.4
			s0.5,0.4,0.7,0.7c0.2,0.3,0.3,0.7,0.3,1.1h-1.2c0-0.2-0.1-0.4-0.2-0.6s-0.2-0.3-0.4-0.4c-0.2-0.1-0.3-0.2-0.5-0.2
			s-0.4-0.1-0.6-0.1c-0.2,0-0.4,0-0.6,0s-0.4,0.1-0.5,0.2c-0.2,0.1-0.3,0.2-0.4,0.3c-0.1,0.1-0.1,0.3-0.1,0.5c0,0.2,0.1,0.4,0.2,0.5
			c0.1,0.1,0.3,0.3,0.6,0.3c0.2,0.1,0.5,0.2,0.8,0.2c0.3,0.1,0.6,0.1,0.9,0.2c0.3,0.1,0.6,0.1,0.9,0.2s0.6,0.2,0.8,0.4
			c0.2,0.2,0.4,0.4,0.6,0.6c0.1,0.2,0.2,0.5,0.2,0.9c0,0.5-0.1,0.8-0.3,1.1c-0.2,0.3-0.4,0.5-0.7,0.7s-0.6,0.3-1,0.4
			c-0.4,0.1-0.8,0.1-1.1,0.1c-0.4,0-0.8,0-1.2-0.1c-0.4-0.1-0.7-0.2-1-0.4c-0.3-0.2-0.5-0.5-0.7-0.8c-0.2-0.3-0.3-0.7-0.3-1.2h1.2
			C98.4,88.8,98.5,89.1,98.6,89.2z"/>
	</g>
</g>
</svg>
