<?xml version="1.0" encoding="UTF-8"?><svg id="Layer_1" xmlns="http://www.w3.org/2000/svg" xmlns:xlink="http://www.w3.org/1999/xlink" viewBox="0 0 309.28 141.87"><defs><style>.cls-1,.cls-2{fill:none;}.cls-3{clip-path:url(#clippath);}.cls-4{fill:#fff;}.cls-5{fill:#1d1d1b;}.cls-2{stroke:#1d1d1b;}</style><clipPath id="clippath"><rect class="cls-1" x="0" y="0" width="309.28" height="141.87"/></clipPath></defs><g class="cls-3"><path class="cls-5" d="M112.71,4.28c1-1.38-8.38-3.78,19.28-3.78s22.39,10.33,47.06,10.33,32.32-9.99,48.76,0c16.44,9.99,24.94,15.28,41.95,15,17.01-.28,62.36,40.82,24.1,56.13-38.26,15.31-33.92,6.54-45.07,23.81-11.15,17.27-38.14,6.24-65.76,26.65-36.84,27.21-26.04-16.68-80.79-11.91C24.27,127.3-16.55,50.2,7.26,41.7,73.45,18.06,60.6,17.06,58.31,8.53c-2.29-8.53,44.97,8.79,54.4-4.25"/><path class="cls-2" d="M112.71,4.28c1-1.38-8.38-3.78,19.28-3.78s22.39,10.33,47.06,10.33,32.32-9.99,48.76,0c16.44,9.99,24.94,15.28,41.95,15,17.01-.28,62.36,40.82,24.1,56.13-38.26,15.31-33.92,6.54-45.07,23.81-11.15,17.27-38.14,6.24-65.76,26.65-36.84,27.21-26.04-16.68-80.79-11.91C24.27,127.3-16.55,50.2,7.26,41.7,73.45,18.06,60.6,17.06,58.31,8.53c-2.29-8.53,44.97,8.79,54.4-4.25Z"/><path class="cls-4" d="M292.23,44.53s9.6,10,8.09,18.79c-1.51,8.8-10.73,16.93-10.73,16.93,0,0,11.64-7.2,12.61-16.79,.97-9.58-9.98-18.92-9.98-18.92"/><path class="cls-4" d="M173.73,132.8s-6.45,6.08-12.12,5.13-10.91-6.8-10.91-6.8c0,0,4.64,7.37,10.83,7.99,6.18,.61,12.2-6.32,12.2-6.32"/><path class="cls-4" d="M85.78,117.41s-17.08-2.64-30.74-8.5c-13.67-5.86-25.24-14.06-25.24-14.06,0,0,9.77,8.49,24.77,14.65,14.97,6.14,31.21,7.92,31.21,7.92"/></g></svg>