<?xml version="1.0" encoding="UTF-8"?><svg id="Layer_1" xmlns="http://www.w3.org/2000/svg" xmlns:xlink="http://www.w3.org/1999/xlink" viewBox="0 0 293.1 367.09"><defs><style>.cls-1{fill:none;}.cls-2{clip-path:url(#clippath);}.cls-3{fill:#fff;}.cls-4{fill:#1d1d1b;}</style><clipPath id="clippath"><rect class="cls-1" width="293.1" height="367.09"/></clipPath></defs><g class="cls-2"><path class="cls-4" d="M144.57,0s15.73,60.96,71.43,125.78c55.7,64.83,108.12,117.56,55.04,189.64-58.78,79.82-223.18,62.33-261.98-19.39C-25.15,223.99,45.62,165.94,86.25,110.78,126.88,55.63,144.57,0,144.57,0"/><path class="cls-3" d="M260.01,201.26s22.18,29.81,18.7,56.05c-3.48,26.24-24.79,50.49-24.79,50.49,0,0,26.9-21.47,29.15-50.09,2.24-28.56-23.05-56.45-23.05-56.45"/><path class="cls-3" d="M233.71,334.91s-51.72,22.18-97.23,18.7c-45.51-3.48-87.57-24.8-87.57-24.8,0,0,37.25,26.9,86.89,29.15,49.55,2.24,97.92-23.06,97.92-23.06"/></g></svg>